<svg id="Group_202" data-name="Group 202" xmlns="http://www.w3.org/2000/svg" xmlns:xlink="http://www.w3.org/1999/xlink" width="1367.025" height="462" viewBox="0 0 1367.025 462"><defs><linearGradient id="linear-gradient" x1="1" y1=".01" x2="0" y2="1" gradientUnits="objectBoundingBox"><stop offset="0" stop-color="#a52eff"/><stop offset="1" stop-color="#3d58f3"/></linearGradient><linearGradient id="linear-gradient-2" x1=".814" y1=".106" x2=".213" y2=".854" gradientUnits="objectBoundingBox"><stop offset="0" stop-color="#fff" stop-opacity="0"/><stop offset="1" stop-color="#fff" stop-opacity=".2"/></linearGradient><linearGradient id="linear-gradient-3" x1=".093" y1=".119" x2=".916" y2=".851" xlink:href="#linear-gradient-2"/></defs><path id="Path_152" data-name="Path 152" d="M1436 788s138.5-112.93 310-121.387 208.5 80.593 376 87.558 159.5-115.417 308-125.371 188.5 92.533 286 85.568 86.667-43.705 86.667-43.705v-344L1436 326z" transform="translate(-1436 -326)" fill="url(#linear-gradient)"/><path id="Path_351" data-name="Path 351" d="M-3034.666 214.667c-41.333-68-80 121.334-138.667 125.333-29.536 2.013-33.726-20.643-42.515-43.3-8.667-22.346-21.808-44.691-68.152-43.367C-3377.333 256-3316 112-3214.666 108c67.471-2.664 70.511-49.656 65.009-80.768l208.324.1v344s6.592 22.366-36.815 35.5c-8.183-49.257-26.858-143.369-56.518-192.165z" transform="translate(4308 -26.667)" fill="url(#linear-gradient-2)"/><path id="Path_195" data-name="Path 195" d="M78.499 319a23.348 23.348 0 01-16.617-6.883 23.345 23.345 0 01-6.883-16.617 23.347 23.347 0 016.883-16.618A23.348 23.348 0 0178.499 272a23.348 23.348 0 0116.617 6.883 23.347 23.347 0 016.883 16.617 23.345 23.345 0 01-6.883 16.617A23.348 23.348 0 0178.499 319zm0-40.286A16.805 16.805 0 0061.714 295.5a16.8 16.8 0 0016.785 16.786A16.8 16.8 0 0095.285 295.5a16.805 16.805 0 00-16.786-16.786z" fill="#fff" stroke="rgba(0,0,0,0)" stroke-width="1" opacity=".2"/><path id="Path_355" data-name="Path 355" d="M-4241.53 390.684V46.537h5.658c77.6 51.747 88.6 159.233 184.341 104 52.73-30.421 116.771-72.154 176.222-103.822l231.295.113c-36.131 23.25-95.348 48.932-85.517 103.709 14 78 60 182-30 184-38.392.853-70.961-20.493-104.227-41.84-44.718-28.695-90.7-57.391-153.773-32.16-94.464 37.786-183.03 130.145-223.9 130.147z" transform="translate(4241.531 -46.537)" fill="url(#linear-gradient-3)"/><path id="Path_342" data-name="Path 342" d="M971.622 99a11.548 11.548 0 01-8.219-3.4 11.546 11.546 0 01-3.4-8.218 11.548 11.548 0 013.4-8.219 11.548 11.548 0 018.219-3.4 11.547 11.547 0 018.219 3.4 11.547 11.547 0 013.4 8.219 11.546 11.546 0 01-3.4 8.218 11.548 11.548 0 01-8.219 3.4zm0-19.925a8.312 8.312 0 00-8.3 8.3 8.311 8.311 0 008.3 8.3 8.311 8.311 0 008.3-8.3 8.312 8.312 0 00-8.3-8.3z" fill="#fff" stroke="rgba(0,0,0,0)" stroke-width="1" opacity=".2"/><circle id="Ellipse_80" data-name="Ellipse 80" cx="13.5" cy="13.5" r="13.5" transform="translate(412 107)" fill="#fff" opacity=".2"/><circle id="Ellipse_81" data-name="Ellipse 81" cx="18.5" cy="18.5" r="18.5" transform="translate(1197 285)" fill="#fff" opacity=".2"/><circle id="Ellipse_68" data-name="Ellipse 68" cx="8.5" cy="8.5" r="8.5" transform="translate(614 367)" fill="#fff" opacity=".2"/><g id="Path_343" data-name="Path 343" fill="none" opacity=".2"><path d="M18.565 10.207a8.165 8.165 0 0114.178 0L45.89 33.214A8.165 8.165 0 0138.8 45.43H12.507a8.165 8.165 0 01-7.089-12.216z" transform="rotate(74.99 322.942 487.455)"/><path d="M25.654 11.093c-.552 0-1.925.156-2.748 1.595L9.76 35.695c-.816 1.428-.264 2.685.01 3.159.276.474 1.093 1.576 2.738 1.576h26.294c1.645 0 2.462-1.102 2.737-1.576.275-.474.827-1.73.01-3.159L28.403 12.688c-.822-1.44-2.196-1.595-2.748-1.595m0-5c2.761 0 5.522 1.372 7.09 4.114L45.89 33.214C49 38.658 45.07 45.43 38.8 45.43H12.508c-6.269 0-10.2-6.772-7.089-12.216l13.147-23.007c1.567-2.742 4.328-4.114 7.089-4.114z" fill="#fff" transform="rotate(74.99 322.942 487.455)"/></g><g id="Path_344" data-name="Path 344" fill="none" opacity=".2"><path d="M17.093 9.782a7.321 7.321 0 0112.712 0l11.787 20.627a7.32 7.32 0 01-6.356 10.952H11.662a7.321 7.321 0 01-6.356-10.952z" transform="rotate(147 83.544 51.237)"/><path d="M23.449 10.093c-.58 0-2.02.163-2.883 1.673L8.779 32.394c-.857 1.498-.278 2.817.01 3.314.29.497 1.147 1.654 2.873 1.654h23.574c1.726 0 2.583-1.157 2.872-1.654.288-.497.867-1.816.01-3.314L26.333 11.766c-.863-1.51-2.304-1.673-2.883-1.673m0-4c2.475 0 4.95 1.23 6.356 3.689l11.787 20.627c2.788 4.88-.735 10.953-6.356 10.953H11.662c-5.621 0-9.145-6.072-6.356-10.953L17.093 9.782c1.405-2.46 3.88-3.689 6.356-3.689z" fill="#fff" transform="rotate(147 83.544 51.237)"/></g><path id="Path_349" data-name="Path 349" d="M-3541.334 357.334c49.333-36 85.334-4 98.667-49.334 11.337-38.546 88.224-26 105.256-2.529-99.087 16.29-120.5 88.257-204.39 113.885-15.591-16.863-28.035-41.223.467-62.022z" transform="translate(4308)" fill="#fff" opacity=".16"/><circle id="Ellipse_82" data-name="Ellipse 82" cx="9.5" cy="9.5" r="9.5" transform="translate(286 285)" fill="#fff" opacity=".2"/></svg>